Coordinates
version=1
nRows=11
nColumns=46
inDegrees=yes

Units are S.I. units (second, meters, Newtons, ...)
Angles are in degrees.

endheader
time	pelvis_tilt	pelvis_list	pelvis_rotation	pelvis_tx	pelvis_ty	pelvis_tz	bb_angle	bb_tx	bb_ty	bb_tz	hip_flexion_r	hip_adduction_r	hip_rotation_r	knee_angle_r	knee_angle_r_beta	ankle_angle_r	subtalar_angle_r	mtp_angle_r	crank_angle_r	hip_flexion_l	hip_adduction_l	hip_rotation_l	knee_angle_l	knee_angle_l_beta	ankle_angle_l	subtalar_angle_l	mtp_angle_l	crank_angle_l	lumbar_extension	lumbar_bending	lumbar_rotation	arm_flex_r	arm_add_r	arm_rot_r	elbow_flex_r	pro_sup_r	wrist_flex_r	wrist_dev_r	arm_flex_l	arm_add_l	arm_rot_l	elbow_flex_l	pro_sup_l	wrist_flex_l	wrist_dev_l
      5.00500000	    -26.86866966	     -8.65119143	    -13.38948962	      0.41574323	      1.05625292	     -0.23609874	      0.00000000	      0.50000000	      0.00000000	      0.25000000	     71.76325064	     11.05254851	      2.78342193	    115.22633172	      2.01107887	     24.42295725	      3.65382541	      0.00000000	      0.00000000	     30.03113037	    -19.76426684	    -10.07370972	     28.98779229	      0.50593242	     -9.92126721	     -0.59563011	      0.00000000	      0.00000000	    -46.74567279	      2.76486023	     14.94539249	     35.71447913	    -23.48955086	     19.12740577	     84.52405322	     51.96836924	      0.00000000	      0.00000000	     27.70265039	    -16.18405070	     11.50820768	     81.50614253	     47.16237743	      0.00000000	      0.00000000
      5.01000000	    -27.07157180	     -8.50706643	    -13.97091676	      0.41553467	      1.05697012	     -0.23584881	      0.00000000	      0.50000000	      0.00000000	      0.25000000	     72.89137235	     11.35592016	      2.76952241	    115.05654048	      2.00811546	     24.75183743	      3.83109681	      0.00000000	      0.00000000	     29.49331772	    -19.90045548	    -10.88124679	     28.96548969	      0.50554316	    -10.62825957	     -0.46056812	      0.00000000	      0.00000000	    -46.79598391	      2.88007293	     14.53696605	     37.45254033	    -23.46397627	     21.31486821	     83.58859424	     52.06893379	      0.00000000	      0.00000000	     26.72767788	    -16.02349708	      9.54105417	     81.86823946	     47.21711004	      0.00000000	      0.00000000
      5.01500000	    -27.28922803	     -8.31303756	    -14.44352887	      0.41535572	      1.05760587	     -0.23565400	      0.00000000	      0.50000000	      0.00000000	      0.25000000	     73.95040301	     11.54162682	      2.68773571	    114.79172186	      2.00349350	     25.11747211	      3.86863036	      0.00000000	      0.00000000	     29.11717800	    -19.96389419	    -11.73104016	     29.15983178	      0.50893507	    -11.33312208	     -0.44960326	      0.00000000	      0.00000000	    -46.82002621	      2.89209671	     14.68098151	     37.86771204	    -23.44829502	     21.38738742	     83.77823107	     52.10369775	      0.00000000	      0.00000000	     26.55804913	    -15.98119668	      9.36571999	     81.71011208	     47.18481073	      0.00000000	      0.00000000
      5.02000000	    -27.44246920	     -8.06196710	    -15.03330966	      0.41545074	      1.05845236	     -0.23515135	      0.00000000	      0.50000000	      0.00000000	      0.25000000	     74.89794142	     11.85440407	      2.74168470	    114.41156912	      1.99685858	     25.32934585	      4.07481014	      0.00000000	      0.00000000	     28.61290009	    -20.02688925	    -12.75588528	     29.42488369	      0.51356110	    -11.80601044	     -0.59501502	      0.00000000	      0.00000000	    -46.85875616	      2.72955134	     14.84107405	     38.16347688	    -23.53765610	     22.00283276	     83.93718697	     52.19430652	      0.00000000	      0.00000000	     26.35726701	    -15.80745515	      8.41935242	     81.57296036	     47.09819573	      0.00000000	      0.00000000
      5.02500000	    -27.55188571	     -7.84712588	    -15.30478391	      0.41536197	      1.05926413	     -0.23523616	      0.00000000	      0.50000000	      0.00000000	      0.25000000	     75.70009832	     11.86264664	      2.67524252	    113.88626759	      1.98769034	     25.64791470	      4.06046488	      0.00000000	      0.00000000	     28.31003025	    -19.93447988	    -13.27188688	     29.90698983	      0.52197544	    -12.15510170	     -0.65628432	      0.00000000	      0.00000000	    -47.04140620	      2.75994439	     14.81221101	     38.66317306	    -23.58085844	     22.11976055	     84.10641436	     52.22800781	      0.00000000	      0.00000000	     26.30241695	    -15.67952625	      8.17520084	     81.51933053	     47.07428831	      0.00000000	      0.00000000
      5.03000000	    -27.61410929	     -7.63533847	    -15.45711703	      0.41544371	      1.06038087	     -0.23546825	      0.00000000	      0.50000000	      0.00000000	      0.25000000	     76.34965633	     11.81630258	      2.62351731	    113.17218787	      1.97522730	     25.77041836	      4.08089335	      0.00000000	      0.00000000	     27.95922854	    -19.71472075	    -13.48465995	     30.28859008	      0.52863562	    -12.25333597	     -0.69386621	      0.00000000	      0.00000000	    -47.29635678	      2.80149920	     14.81314430	     38.75561975	    -23.57887733	     22.20485737	     84.14074210	     52.24120010	      0.00000000	      0.00000000	     26.25370468	    -15.64217703	      8.09860809	     81.48352898	     47.06361517	      0.00000000	      0.00000000
      5.03500000	    -28.02527475	     -7.48281539	    -16.05104307	      0.41521879	      1.06078439	     -0.23482864	      0.00000000	      0.50000000	      0.00000000	      0.25000000	     77.31861478	     12.26662651	      2.52134284	    112.32662725	      1.96046948	     25.91579109	      4.14932812	      0.00000000	      0.00000000	     28.11651773	    -20.04284129	    -14.36029953	     31.37551305	      0.54760601	    -12.28494166	     -0.97429732	      0.00000000	      0.00000000	    -47.24569892	      2.84767293	     14.33739001	     40.53589295	    -24.10159851	     25.21344157	     84.19333776	     52.54133911	      0.00000000	      0.00000000	     25.20595841	    -15.02625381	      5.81064875	     81.62101172	     46.95447989	      0.00000000	      0.00000000
      5.04000000	    -28.13375407	     -7.32490486	    -16.31788666	      0.41521211	      1.06164714	     -0.23463781	      0.00000000	      0.50000000	      0.00000000	      0.25000000	     77.81945971	     12.37643590	      2.39432529	    111.33473665	      1.94315773	     26.09987221	      4.08334786	      0.00000000	      0.00000000	     28.02251416	    -20.06776024	    -14.71128746	     32.34357293	      0.56450184	    -12.23345550	     -1.31378060	      0.00000000	      0.00000000	    -47.55865177	      2.99410663	     13.33035819	     42.60833731	    -23.29925662	     27.49984657	     82.69463694	     52.51279679	      0.00000000	      0.00000000	     23.78564131	    -15.52509198	      4.18868644	     83.16837598	     47.23976479	      0.00000000	      0.00000000
      5.04500000	    -28.17050525	     -7.02490410	    -16.44124479	      0.41549479	      1.06295978	     -0.23478656	      0.00000000	      0.50000000	      0.00000000	      0.25000000	     78.10015047	     12.21862764	      2.36256773	    110.14498129	      1.92239258	     26.21075657	      4.11338027	      0.00000000	      0.00000000	     27.80173637	    -19.76350390	    -14.79908845	     33.01255444	      0.57617777	    -12.26219597	     -1.39138467	      0.00000000	      0.00000000	    -47.82089455	      2.87462107	     13.23109570	     42.67143167	    -23.28623136	     27.50541655	     82.72456897	     52.51733961	      0.00000000	      0.00000000	     23.76216150	    -15.49244829	      4.21018303	     83.13703947	     47.23865224	      0.00000000	      0.00000000
      5.05000000	    -28.31882830	     -6.93465577	    -16.63148099	      0.41527687	      1.06365813	     -0.23455452	      0.00000000	      0.50000000	      0.00000000	      0.25000000	     78.43112255	     12.34939687	      2.24860182	    108.90172480	      1.90069366	     26.38798323	      4.18457768	      0.00000000	      0.00000000	     28.08851048	    -19.90195274	    -14.94477539	     34.63709739	      0.60453139	    -11.87572110	     -2.17325242	      0.00000000	      0.00000000	    -48.12374742	      2.92445941	     13.16501272	     43.33120214	    -23.23088109	     27.71373611	     83.09978192	     52.58990504	      0.00000000	      0.00000000	     23.79030039	    -15.46133400	      4.00063110	     83.23023309	     47.24718522	      0.00000000	      0.00000000
      5.05500000	    -28.33047713	     -6.79303829	    -16.52980321	      0.41524205	      1.06467903	     -0.23473933	      0.00000000	      0.50000000	      0.00000000	      0.25000000	     78.49436514	     12.13354489	      2.10696405	    107.52797012	      1.87671712	     26.48259822	      4.18334477	      0.00000000	      0.00000000	     28.28254733	    -19.74754731	    -14.66600156	     36.05866950	      0.62934251	    -11.57768545	     -2.58169304	      0.00000000	      0.00000000	    -48.50403375	      3.05196724	     12.95257595	     43.74104032	    -23.30808950	     27.94466361	     83.32662155	     52.64478653	      0.00000000	      0.00000000	     23.80248382	    -15.38276574	      3.80161911	     83.37351051	     47.26242158	      0.00000000	      0.00000000
